<svg xmlns="http://www.w3.org/2000/svg" width="1693" height="459"><path d="M449 122h40c10.113 15.731 10.113 15.731 13.438 21.383l1.099 1.862c.765 1.295 1.528 2.59 2.29 3.887a4271.616 4271.616 0 0 0 7.442 12.592c4.173 7.039 8.412 14.037 12.668 21.026.355.582.71 1.164 1.074 1.764l1.065 1.748c4.464 7.33 8.901 14.676 13.302 22.045a1680.825 1680.825 0 0 0 9.138 15.076l3.556 5.818c.782 1.277 1.565 2.553 2.35 3.828 1.098 1.782 2.19 3.568 3.281 5.354l1.927 3.137C563 244 563 244 563 246h2l.598-2.32c1.996-5.239 4.913-9.787 7.84-14.555 1.01-1.665 2.021-3.33 3.03-4.997a3812.69 3812.69 0 0 1 2.152-3.545c4.324-7.122 8.57-14.29 12.817-21.458l2.435-4.104a38211.007 38211.007 0 0 0 9.274-15.642c3.306-5.575 6.61-11.15 9.913-16.727 2.41-4.069 4.822-8.137 7.235-12.204a50740.74 50740.74 0 0 0 7.48-12.607l1.898-3.2 1.66-2.796c1.915-3.266 3.79-6.557 5.668-9.845h40c.132 20.727.262 41.453.391 62.18.06 9.628.12 19.257.182 28.885l.158 25.238c.027 4.436.055 8.872.084 13.307.156 24.13.205 48.259.185 72.39h-45l-1-117-19 32c-8.75 14.375-8.75 14.375-12.91 21.203-5.42 8.956-10.625 18.03-15.82 27.117l-1.687 2.875c-1.618 2.784-1.618 2.784-2.944 5.708-3.237 6.507-3.237 6.507-7.103 8.134-3.005.539-5.734.661-8.786.588l-3.15-.073c-4.576-.366-8.483-.7-11.733-4.17-2.293-3.3-3.885-6.95-5.526-10.609-2.398-4.959-5.395-9.573-8.302-14.245-1.866-3.012-3.695-6.046-5.527-9.079A22122.615 22122.615 0 0 0 525 259c-2.566-4.237-5.133-8.473-7.702-12.708l-2.974-4.912c-6.37-10.506-12.856-20.932-19.324-31.38l-1 114h-45V122Z" fill="#3869FC"/><path d="M1316 122h154v38h-106v43h93v37h-93v46h109v38h-157V122Z" fill="#FFF"/><path d="m281.905 121.88 2.523.006h2.851l3.1.016 3.157.005c3.342.005 6.684.018 10.027.03 2.26.006 4.519.01 6.779.014 5.553.011 11.105.028 16.658.049 5.503 11.702 10.864 23.466 16.188 35.25l1.271 2.813a5898.855 5898.855 0 0 1 18.801 42.008c3.782 8.542 7.573 17.08 11.365 25.617a7620.1 7620.1 0 0 0 19.75 44.125 3770.754 3770.754 0 0 1 16.75 37.625l.924 2.103a324934693.595 324934693.595 0 0 0 3.952 9.042C417 323 417 323 417 324h-50c-6.812-13.624-12.2-27.916-18-42l-93-1-1 5a67.227 67.227 0 0 1-1.475 3.84l-.9 2.164-.969 2.289-.997 2.386c-1.049 2.504-2.104 5.006-3.159 7.509l-2.129 5.083c-5.15 12.285-5.15 12.285-6.371 14.729h-49c1.206-3.62 2.324-6.916 3.857-10.352l1.087-2.448 1.17-2.61 1.228-2.76c1.32-2.966 2.646-5.93 3.97-8.892l2.762-6.196c5.292-11.869 10.603-23.73 15.927-35.584a9438.19 9438.19 0 0 0 14.562-32.658l1.281-2.884c4.366-9.827 8.73-19.655 13.091-29.485 15.943-35.928 15.943-35.928 23.333-52.339a4104.11 4104.11 0 0 0 1.82-4.047 273346081.07 273346081.07 0 0 1 3.831-8.5c1.546-3.211 1.546-3.211 3.986-3.365ZM302 171l-1.354 3.272a49003.57 49003.57 0 0 1-7.49 18.083c-4.035 9.744-8.077 19.484-12.18 29.2l-.924 2.192c-1.426 3.38-2.855 6.757-4.291 10.132l-1.515 3.586-1.322 3.113c-1.043 2.301-1.043 2.301-.924 4.422h62c-1.903-5.71-3.818-11.217-6.152-16.734l-.899-2.148c-.96-2.29-1.923-4.58-2.886-6.868-1.006-2.398-2.01-4.796-3.014-7.194l-2.04-4.868a4994.747 4994.747 0 0 1-9.946-23.938A90857.769 90857.769 0 0 0 304 171h-2Z" fill="#3869FC"/><path d="M1100 122h170c0 32 0 32-4.938 39.813A174.503 174.503 0 0 1 1259 167a149.145 149.145 0 0 0-4.625 5.625l-2.203 2.703L1250 178a1125.991 1125.991 0 0 1-15.984 19.234c-3.392 4-6.677 8.076-9.934 12.188-2.413 2.988-4.9 5.909-7.395 8.828a365.787 365.787 0 0 0-11.062 13.625c-4.405 5.683-9.044 11.117-13.789 16.519-4.058 4.645-7.885 9.427-11.65 14.31-4.148 5.34-8.561 10.432-13.036 15.5-2.883 3.18-2.883 3.18-5.15 6.796l1.746-.003c14.004-.022 28.008-.038 42.011-.049 6.772-.005 13.544-.012 20.316-.023 6.53-.011 13.058-.017 19.588-.02 2.497-.002 4.994-.005 7.491-.01 3.485-.008 6.969-.009 10.453-.009l3.163-.01 2.86.004 2.5-.003C1274 285 1274 285 1275 286v38h-178c0-31 0-31 5.938-39.75 3.624-3.336 3.624-3.336 5.421-4.831 2.344-2.027 4.179-4.354 6.079-6.794 8.474-10.45 17.013-20.844 25.73-31.093 3.561-4.194 7.043-8.448 10.516-12.716a734.406 734.406 0 0 1 7.879-9.379c3.204-3.768 6.364-7.56 9.437-11.437 3.073-3.878 6.233-7.669 9.438-11.438 4.928-5.795 9.755-11.665 14.562-17.562l14-17-106-1v-39ZM876 122c7.01-.229 14.02-.386 21.033-.494 2.384-.046 4.768-.107 7.152-.185 3.431-.11 6.859-.16 10.292-.2l3.22-.14c7.233-.006 7.233-.006 10.204 2.84 1.575 2.325 2.854 4.664 4.099 7.179a216.4 216.4 0 0 0 2.156 3.515l1.989 3.38 1.112 1.883c.782 1.325 1.564 2.65 2.344 3.977 2.092 3.553 4.192 7.1 6.294 10.647l1.293 2.184A2181.034 2181.034 0 0 0 960 177.875l1.06 1.744A9695.35 9695.35 0 0 0 968 191l1.801 2.952c3.063 5.018 6.129 10.035 9.199 15.048 3.056-3.65 5.541-7.401 7.95-11.504l1.12-1.9c.795-1.349 1.588-2.698 2.38-4.048 2.119-3.613 4.25-7.22 6.382-10.825l1.313-2.224c2.782-4.705 5.592-9.393 8.43-14.065l1.088-1.801a397.118 397.118 0 0 1 5.408-8.69c3.435-5.433 6.255-10.442 8.226-16.576 4.28-11.969 4.28-11.969 10.703-15.367 15.043-3.384 31.786-1.327 47 0-1.283 4.268-2.902 7.801-5.246 11.586l-2.008 3.27-1.075 1.731c-1.933 3.117-3.846 6.246-5.76 9.374l-1.22 1.987c-4.066 6.64-8.039 13.335-12 20.038-8.411 14.228-16.943 28.378-25.545 42.49a6100 6100 0 0 0-7.979 13.139 29720.579 29720.579 0 0 0-7.558 12.463l-1.75 2.888c-1.859 3.034-1.859 3.034-3.17 4.6-5.252 6.788-4.42 14.805-4.396 22.965-.013 1.603-.028 3.206-.046 4.809-.04 4.195-.05 8.39-.054 12.586-.01 5.046-.059 10.092-.1 15.138-.06 7.646-.072 15.29-.093 22.936h-47l.379-14.766c.041-3.154.078-6.306.096-9.46.029-4.97.073-9.933.235-14.9.736-23.539-2.27-38.62-16.467-57.75-3.885-5.41-7.22-11.15-10.618-16.874-.788-1.3-1.578-2.6-2.37-3.897-5.712-9.421-11.34-18.892-16.95-28.373-6.46-10.913-13.001-21.774-19.612-32.597a1501.93 1501.93 0 0 1-9.677-16.055l-1.757-2.956C876 124 876 124 876 122Z" fill="#FFF"/><path d="M737 122h48v163h101v39H737V122Z" fill="#3869FC"/></svg>
