<svg version="1.1" id="Layer_1" xmlns="http://www.w3.org/2000/svg" x="0" y="0" viewBox="0 0 2129 350.5" style="enable-background:new 0 0 2129 350.5" xml:space="preserve"><style>.st0{fill:#3179f8}.st1{fill:#fff}</style><path class="st0" d="M276 275.5H113.5l-31 75h-83l156-350h80l156.5 350h-85l-31-75zM250.5 214 195 80l-55.5 134h111zM749.5 350.5l-.5-210-103 173h-36.5L507 145v205.5h-76V.5h67L629 218 758 .5h66.5l1 350h-76zM911 .5h81v284h175.5v66H911V.5z"/><path class="st1" d="M1347.5 226.5v124h-81v-125L1131 .5h86l93.5 155.5L1404 .5h79.5l-136 226zM1803.5 284.5v66h-306V298l192-231.5h-188V.5H1796V53l-191.5 231.5h199zM2129 285.5v65h-271V.5h264.5v65h-184v76H2101v63h-162.5v81H2129z"/></svg>
